<svg width="141" height="17" viewBox="0 0 141 17" fill="none" xmlns="http://www.w3.org/2000/svg">
<g clip-path="url(#clip0_1_22820)">
<path d="M87.9673 9.03383C87.3623 5.97356 84.9571 4.48032 81.9 4.71157C77.7464 5.02399 75.7709 9.58979 77.2525 13.1864C78.9712 17.3536 85.3695 17.5209 87.745 13.8555L85.3769 12.6328C83.8755 15.0461 79.7763 14.3229 79.5318 11.3635H87.9376C88.3377 11.3635 88.0389 9.40283 87.9673 9.03383ZM79.5318 9.44465C80.0726 6.09656 85.041 5.94158 85.3053 9.44465H79.5318Z" fill="#243957"/>
<path d="M98.7042 6.13345C96.6793 3.71525 90.1305 4.20971 90.0564 8.16543L92.6171 8.54919C93.0295 5.92189 97.3312 6.81488 96.8546 9.44464H93.3259C93.2468 9.44464 93.0493 9.484 92.8221 9.53812C92.469 9.62422 92.0418 9.73984 91.8788 9.79397C90.2712 10.3007 89.3378 11.6464 89.4563 13.2257C89.4563 13.2454 89.4588 13.2651 89.4612 13.2872C89.4637 13.3536 89.4736 13.42 89.481 13.4865C89.5032 13.6365 89.5353 13.789 89.5773 13.9465C90.4095 17.0289 94.9754 17.147 96.9188 15.0707L96.983 16.2196H99.6771V8.35977C99.6771 7.86285 99.0474 6.53935 98.7042 6.13345ZM96.6225 12.9871C95.8175 14.8075 92.0739 14.7755 92.227 12.5763C92.3529 10.7804 95.7212 11.6144 96.8546 11.2355C96.8768 11.8235 96.867 12.4385 96.6225 12.9871Z" fill="#243957"/>
<path d="M112.893 16.2195V9.25276C112.893 9.14206 112.77 8.33271 112.733 8.13345C112.066 4.51721 107.448 3.52828 105.068 6.12115V4.84193H102.371V16.2171H105.065V9.76198C105.065 9.6562 105.317 8.83947 105.386 8.67465C106.12 6.92557 109.041 6.75091 109.782 8.51475C109.841 8.65497 110.071 9.42742 110.071 9.50614V16.2171H112.893V16.2195Z" fill="#243957"/>
<path d="M67.3429 5.86776C67.1206 4.85915 66.1378 3.98092 65.1945 3.59716C64.2784 3.22323 63.1424 3.13959 62.1744 3.33885C56.4504 4.51721 57.1566 14.5689 64.0586 13.7817C65.5748 13.6095 66.8515 12.5762 67.5305 11.2601L70.1629 12.1334C70.3284 12.3671 69.3554 13.7251 69.1381 13.9809C66.7379 16.8124 62.004 17.238 58.9148 15.3512C54.5218 12.6673 54.1242 5.65866 57.9765 2.34992C61.5028 -0.680826 67.7898 0.0473415 70.0172 4.29088C70.1629 4.56641 70.3136 4.76567 69.9506 4.94771C69.1752 5.33393 68.1751 5.59224 67.3453 5.86776H67.3429Z" fill="#243957"/>
<path d="M98.7042 6.13345C96.6793 3.71525 90.1305 4.20971 90.0564 8.16543L92.6171 8.54919C93.0295 5.92189 97.3312 6.81488 96.8546 9.44464C96.8546 9.44464 95.1927 9.35116 93.7382 9.44464C93.4172 9.46678 93.1061 9.4963 92.8221 9.53812C92.4319 9.59716 92.0986 9.67834 91.8788 9.79397C90.3873 10.5689 89.3699 11.7103 89.4563 13.2257C89.4563 13.2454 89.4588 13.2651 89.4613 13.2872C89.4637 13.3536 89.4736 13.42 89.481 13.4865C89.5032 13.6365 89.5353 13.789 89.5773 13.9465C90.4095 17.0289 94.9754 17.147 96.9188 15.0707L96.983 16.2196H99.6771V8.35977C99.6771 7.86285 99.0474 6.53935 98.7042 6.13345ZM96.6225 12.9871C95.8175 14.8075 92.0739 14.7755 92.227 12.5763C92.3529 10.7804 95.7212 11.6144 96.8546 11.2355C96.8768 11.8235 96.867 12.4385 96.6225 12.9871Z" fill="#243957"/>
<path d="M87.9673 9.03383C87.3623 5.97356 84.9571 4.48032 81.9 4.71157C77.7464 5.02399 75.7709 9.58979 77.2525 13.1864C78.9712 17.3536 85.3695 17.5209 87.745 13.8555L85.3769 12.6328C83.8755 15.0461 79.7763 14.3229 79.5318 11.3635H87.9376C88.3377 11.3635 88.0389 9.40283 87.9673 9.03383ZM79.5318 9.44465C80.0726 6.09656 85.041 5.94158 85.3053 9.44465H79.5318Z" fill="#243957"/>
<path d="M112.893 16.2195H110.071V9.5086C110.071 9.42988 109.841 8.65743 109.782 8.51721C109.044 6.75337 106.12 6.92558 105.386 8.67711C105.317 8.84194 105.065 9.65866 105.065 9.76444V16.2195H102.371V4.8444H105.065V6.12361C107.448 3.5332 112.066 4.51967 112.733 8.13591C112.77 8.33271 112.893 9.14452 112.893 9.25522V16.222V16.2195Z" fill="#243957"/>
<path d="M74.914 0.5H72.0915V16.2196H74.914V0.5Z" fill="#243957"/>
<path d="M9.11207 0.682043C8.9565 0.588562 6.67231 0.571342 6.34881 0.620542C6.20065 0.642682 6.10434 0.684503 6.04261 0.827184L0 16.2171H3.01513L4.34861 12.9699L10.8234 12.9108C10.9641 12.9526 11.0036 13.0683 11.0604 13.1839C11.5173 14.0646 11.7988 15.2823 12.1889 16.2171H15.3967L9.11207 0.682043ZM5.25981 10.4631C6.02779 8.50738 6.62045 6.45326 7.43535 4.51476C7.48968 4.38438 7.51684 4.2171 7.6971 4.19988L10.006 10.4631H5.25981Z" fill="#243957"/>
<path d="M30.1513 1.77182H27.5214L27.3288 1.9637V4.71155H25.4052V7.13959H27.3288V13.3389C27.3288 13.393 27.5338 14.1088 27.5782 14.2392C28.3808 16.527 31.2206 16.6181 33.2307 16.0867V13.9145C31.8182 14.2048 30.3291 14.2023 30.1489 12.4459C29.9785 10.778 30.2797 8.83701 30.1489 7.13959H33.3566V4.71155H30.1489V1.77182H30.1513Z" fill="#243957"/>
<path d="M45.3159 7.56273C43.3231 3.19372 36.3767 3.59963 34.7666 8.09409C32.8429 13.4569 37.6163 18.1482 42.9008 15.9416C43.5873 15.6537 45.2122 14.5418 45.4072 13.8358C45.4764 13.5849 45.3628 13.6956 45.2566 13.6341C45.0023 13.4889 43.2984 12.6181 43.1872 12.6451C41.6217 15.024 37.4632 14.3327 37.2088 11.3585H45.8048C45.9974 10.1605 45.827 8.6845 45.3159 7.56273ZM37.2088 9.31427C37.6657 5.90221 42.686 5.81119 43.1107 9.31427H37.2088Z" fill="#243957"/>
<path d="M24.121 4.58364C22.5406 4.46064 21.0985 4.69926 20.0786 5.98831L20.0144 4.71156H17.1919V16.2146H20.0144V9.50369C20.0144 9.32411 20.6145 8.27368 20.7824 8.09656C21.5479 7.28967 23.074 6.90098 24.121 7.26753V4.58364Z" fill="#243957"/>
<path d="M9.11207 0.682043C8.9565 0.588562 6.67231 0.571342 6.34881 0.620542C6.20065 0.642682 6.10434 0.684503 6.04261 0.827184L0 16.2171H3.01513L4.34861 12.9699L10.8234 12.9108C10.9641 12.9526 11.0036 13.0683 11.0604 13.1839C11.5173 14.0646 11.7988 15.2823 12.1889 16.2171H15.3967L9.11207 0.682043ZM5.25981 10.4631C6.02779 8.50738 6.62045 6.45326 7.43535 4.51476C7.48968 4.38438 7.51684 4.2171 7.6971 4.19988L10.006 10.4631H5.25981Z" fill="#243957"/>
<path d="M45.3159 7.56273C43.3231 3.19372 36.3767 3.59963 34.7666 8.09409C32.8429 13.4569 37.6163 18.1482 42.9008 15.9416C43.5873 15.6537 45.2122 14.5418 45.4072 13.8358C45.4764 13.5849 45.3628 13.6956 45.2566 13.6341C45.0023 13.4889 43.2984 12.6181 43.1872 12.6451C41.6217 15.024 37.4632 14.3327 37.2088 11.3585H45.8048C45.9974 10.1605 45.827 8.6845 45.3159 7.56273ZM37.2088 9.31427C37.6657 5.90221 42.686 5.81119 43.1107 9.31427H37.2088Z" fill="#243957"/>
<path d="M30.1513 1.77182V4.71155H33.359V7.13959H30.1513C30.2797 8.83701 29.9784 10.778 30.1513 12.4459C30.3316 14.2023 31.8206 14.2023 33.2331 13.9145V16.0867C31.223 16.6181 28.3832 16.527 27.5807 14.2392C27.5362 14.1088 27.3313 13.393 27.3313 13.3389V7.13959H25.4076V4.71155H27.3313V1.9637L27.5239 1.77182H30.1538H30.1513Z" fill="#243957"/>
<path d="M24.121 4.58363V7.26751C23.074 6.90097 21.5479 7.28965 20.7824 8.09654C20.6145 8.27366 20.0144 9.32409 20.0144 9.50368V16.2146H17.1919V4.71155H20.0144L20.0786 5.9883C21.0985 4.69679 22.5406 4.46063 24.121 4.58363Z" fill="#243957"/>
<path d="M141 10.8616C140.919 7.80381 137.121 7.08548 134.881 8.67712C132.73 10.2048 132.69 13.8505 134.673 15.5406C136.656 17.2306 140.773 16.6968 141 13.7226H139.491C138.985 15.5799 136.33 15.5504 135.357 14.0966C134.673 13.0707 134.639 11.3093 135.36 10.3007C136.533 8.6599 139.029 8.80996 139.647 10.8616H141Z" fill="#FF766C"/>
<path d="M121.274 7.99817H119.743V16.3942H124.722V15.0584H121.274V7.99817Z" fill="#FF766C"/>
<path d="M128.362 7.99817H126.828V16.3942H131.809V15.0584H128.362V7.99817Z" fill="#FF766C"/>
<path d="M141 10.8616H139.647C139.029 8.80997 136.533 8.65991 135.36 10.3007C134.639 11.3094 134.671 13.0732 135.357 14.0966C136.328 15.5504 138.985 15.58 139.491 13.7226H141C140.775 16.6968 136.676 17.2479 134.673 15.5406C132.671 13.8333 132.856 10.3647 134.881 8.67713C137.113 6.81489 140.919 7.80382 141 10.8616Z" fill="#FF766C"/>
<path d="M121.274 7.99817V15.0584H124.722V16.3942H119.743V7.99817H121.274Z" fill="#FF766C"/>
<path d="M128.362 7.99817V15.0584H131.809V16.3942H126.828V7.99817H128.362Z" fill="#FF766C"/>
</g>
<defs>
<clipPath id="clip0_1_22820">
<rect width="141" height="16" fill="white" transform="translate(0 0.5)"/>
</clipPath>
</defs>
</svg>
